<?xml version="1.0" encoding="UTF-8" standalone="no"?>
<!-- Created with Inkscape (http://www.inkscape.org/) -->
<svg xmlns:dc="http://purl.org/dc/elements/1.1/" xmlns:cc="http://creativecommons.org/ns#" xmlns:rdf="http://www.w3.org/1999/02/22-rdf-syntax-ns#" xmlns:svg="http://www.w3.org/2000/svg" xmlns="http://www.w3.org/2000/svg" xmlns:sodipodi="http://sodipodi.sourceforge.net/DTD/sodipodi-0.dtd" xmlns:inkscape="http://www.inkscape.org/namespaces/inkscape" version="1.1" width="1720" height="760" id="svg2" xml:space="preserve" inkscape:version="0.48.2 r9819" sodipodi:docname="LogosESIR_noir.svg"><metadata id="metadata55"><rdf:RDF><cc:Work rdf:about=""><dc:format>image/svg+xml</dc:format><dc:type rdf:resource="http://purl.org/dc/dcmitype/StillImage"/><dc:title/></cc:Work></rdf:RDF></metadata><sodipodi:namedview pagecolor="#ffffff" bordercolor="#666666" borderopacity="1" objecttolerance="10" gridtolerance="10" guidetolerance="10" inkscape:pageopacity="0" inkscape:pageshadow="2" inkscape:window-width="1157" inkscape:window-height="671" id="namedview53" showgrid="false" inkscape:zoom="0.295" inkscape:cx="360.13834" inkscape:cy="462.58928" inkscape:window-x="183" inkscape:window-y="58" inkscape:window-maximized="0" inkscape:current-layer="g18"/><defs id="defs6"><clipPath id="clipPath20"><path d="M 0,1899.54 0,0 l 3196.07,0 0,1899.54 -3196.07,0 z" id="path22"/></clipPath></defs><g transform="matrix(1.25,0,0,-1.25,-13.557769,2188.6617)" id="g12"><g transform="translate(10.846215,-5.0206396)" id="g14"><g id="g16"><g clip-path="url(#clipPath20)" id="g18"><path d="m 137.513,1497.03 c 6.504,8.28 14.336,15.36 23.477,21.25 9.121,5.88 19.297,10.38 30.461,13.54 11.16,3.12 23.094,4.68 35.789,4.68 55.808,0 90.976,-22.54 105.539,-67.65 l -210.149,0 c 3.411,10.53 8.372,19.92 14.883,28.18 z m 14.414,-169.14 c -21.406,17.79 -33.476,41.72 -36.269,71.8 l 324.531,0 0.488,19.92 c 0,60.39 -19.238,107.62 -57.675,141.72 -38.758,34.3 -91.438,51.48 -158.067,51.48 -66.035,0 -119.0428,-17.67 -159.0233,-52.99 C 26.2242,1523.97 6.4,1477.13 6.4,1419.22 c 0,-58.38 20.4609,-105.23 61.3867,-140.57 32.168,-27.58 72.7153,-44.17 121.3793,-50.07 l 0,79.41 c -13.957,4.37 -26.379,11 -37.239,19.9" id="path24" style="fill:#231e1f;fill-opacity:1;fill-rule:nonzero;stroke:none"/><path d="m 795.072,1348.43 c 0,27.53 -9.629,49.42 -28.848,65.69 -19.219,16.25 -56.582,34.02 -112.051,53.3 -40.293,13.77 -60.449,27.66 -60.449,41.68 0,8 3.406,14.58 10.235,19.71 6.816,5.12 15.019,7.69 24.648,7.69 20.137,0 37.031,-11.15 50.664,-33.45 l 86.484,37.21 c -28.195,48.37 -71.289,72.55 -129.257,72.55 -39.368,0 -72.84,-10.41 -100.41,-31.19 -26.985,-20.81 -40.469,-47.12 -40.469,-78.94 0,-24.07 7.91,-43.73 23.719,-59.01 12.406,-12.03 33.781,-24.06 64.152,-36.09 10.848,-4.26 21.543,-8.4 32.109,-12.4 10.508,-4.02 21.055,-8.15 31.594,-12.39 27.281,-13.06 40.926,-27.09 40.926,-42.13 0,-2.18 -0.313,-4.16 -0.559,-6.19 30.363,0 66.477,0 106.574,0 0.567,4.55 0.938,9.19 0.938,13.96" id="path26" style="fill:#231e1f;fill-opacity:1;fill-rule:nonzero;stroke:none"/><path d="m 977.181,1602.66 -104.59,0 0,-268.19 c 33.497,0 68.614,0 104.59,0 l 0,268.19" id="path28" style="fill:#231e1f;fill-opacity:1;fill-rule:nonzero;stroke:none"/><path d="m 1183.67,1426.38 c 0,69.66 28.53,104.48 85.54,104.48 18.93,0 38.3,-5.76 58.15,-17.3 l 47.86,77.46 c -30.05,14.52 -58.88,21.79 -86.45,21.79 -20.78,0 -38.78,-3.14 -53.95,-9.4 -14.88,-6.01 -31.94,-17.16 -51.15,-33.47 l 0,32.72 -104.61,0 0,-268.19 c 35,0 70.09,0 104.61,0 l 0,91.91" id="path30" style="fill:#231e1f;fill-opacity:1;fill-rule:nonzero;stroke:none"/><path d="m 928.08,1647.59 c 15.195,0 28.047,5.17 38.508,15.53 10.742,10.36 16.082,22.88 16.082,37.59 0,14.68 -5.34,27.11 -16.082,37.22 -10.715,10.37 -23.684,15.55 -38.887,15.55 -14.946,0 -27.805,-5.18 -38.528,-15.55 -10.703,-10.35 -16.062,-22.64 -16.062,-36.86 0,-14.94 5.359,-27.59 16.062,-37.95 10.723,-10.36 23.704,-15.53 38.907,-15.53" id="path32" style="fill:#40c1e6;fill-opacity:1;fill-rule:nonzero;stroke:none"/><path d="m 1119.41,1690.78 c 0,-25.21 -20.43,-45.66 -45.65,-45.66 -25.21,0 -45.66,20.45 -45.66,45.66 0,25.22 20.45,45.65 45.66,45.65 25.22,0 45.65,-20.43 45.65,-45.65" id="path34" style="fill:#80cc28;fill-opacity:1;fill-rule:nonzero;stroke:none"/><path d="m 827.838,1681.28 c 0,-21.53 -17.446,-38.94 -38.965,-38.94 -21.496,0 -38.918,17.41 -38.918,38.94 0,21.49 17.422,38.92 38.918,38.92 21.519,0 38.965,-17.43 38.965,-38.92" id="path36" style="fill:#f58113;fill-opacity:1;fill-rule:nonzero;stroke:none"/><path d="m 702.611,1682.32 c 0,-7.22 -5.859,-13.08 -13.086,-13.08 -7.234,0 -13.098,5.86 -13.098,13.08 0,7.21 5.864,13.08 13.098,13.08 7.227,0 13.086,-5.87 13.086,-13.08" id="path38" style="fill:#76319b;fill-opacity:1;fill-rule:nonzero;stroke:none"/><path d="m 1199.49,1692.85 c 0,-9.52 -7.7,-17.23 -17.23,-17.23 -9.5,0 -17.23,7.71 -17.23,17.23 0,9.52 7.73,17.23 17.23,17.23 9.53,0 17.23,-7.71 17.23,-17.23" id="path40" style="fill:#ed088f;fill-opacity:1;fill-rule:nonzero;stroke:none"/><path d="m 247.916,1230.98 0,56.86 40.164,0 0,-9.62 -29.239,0 0,-12.61 27.207,0 0,-9.57 -27.207,0 0,-15.47 30.286,0 0,-9.59 -41.211,0" id="path42" style="fill:#231e1f;fill-opacity:1;fill-rule:nonzero;stroke:none"/><path d="m 337.474,1251.88 10.606,-3.52 c -1.621,-6.22 -4.344,-10.82 -8.106,-13.83 -3.789,-3.02 -8.594,-4.53 -14.402,-4.53 -7.207,0 -13.117,2.58 -17.746,7.74 -4.649,5.15 -6.953,12.22 -6.953,21.17 0,9.46 2.336,16.81 6.98,22.04 4.668,5.24 10.793,7.86 18.371,7.86 6.621,0 12.012,-2.04 16.172,-6.17 2.461,-2.43 4.316,-5.92 5.547,-10.47 l -10.859,-2.72 c -0.633,2.97 -1.954,5.28 -4.004,7 -2.024,1.69 -4.492,2.54 -7.403,2.54 -4.023,0 -7.265,-1.51 -9.765,-4.53 -2.5,-3.03 -3.75,-7.93 -3.75,-14.71 0,-7.17 1.218,-12.3 3.672,-15.36 2.48,-3.04 5.683,-4.57 9.609,-4.57 2.898,0 5.43,0.97 7.512,2.9 2.097,1.95 3.613,5.01 4.519,9.16" id="path44" style="fill:#231e1f;fill-opacity:1;fill-rule:nonzero;stroke:none"/><path d="m 370.931,1259.45 c 0,-6.44 1.387,-11.32 4.239,-14.65 2.832,-3.32 6.425,-4.98 10.792,-4.98 4.364,0 7.95,1.64 10.731,4.95 2.805,3.3 4.211,8.24 4.211,14.84 0,6.5 -1.367,11.37 -4.094,14.59 -2.715,3.2 -6.348,4.79 -10.848,4.79 -4.511,0 -8.144,-1.61 -10.91,-4.87 -2.746,-3.24 -4.121,-8.12 -4.121,-14.67 z m -11.301,-0.41 c 0,5.81 0.832,10.67 2.5,14.6 1.223,2.89 2.903,5.51 5.032,7.81 2.129,2.3 4.472,4 7.011,5.13 3.379,1.49 7.278,2.23 11.7,2.23 7.968,0 14.355,-2.6 19.16,-7.79 4.785,-5.2 7.168,-12.43 7.168,-21.68 0,-9.18 -2.363,-16.37 -7.129,-21.57 -4.766,-5.17 -11.106,-7.77 -19.07,-7.77 -8.071,0 -14.485,2.58 -19.231,7.74 -4.758,5.15 -7.141,12.26 -7.141,21.3" id="path46" style="fill:#231e1f;fill-opacity:1;fill-rule:nonzero;stroke:none"/><path d="m 425.443,1230.98 0,56.39 10.93,0 0,-46.8 27.215,0 0,-9.59 -38.145,0" id="path48" style="fill:#231e1f;fill-opacity:1;fill-rule:nonzero;stroke:none"/><path d="m 475.775,1230.98 0,56.86 40.195,0 0,-9.62 -29.238,0 0,-12.61 27.188,0 0,-9.57 -27.188,0 0,-15.47 30.273,0 0,-9.59 -41.23,0" id="path50" style="fill:#231e1f;fill-opacity:1;fill-rule:nonzero;stroke:none"/><path d="m 553.314,1249.47 10.645,1.1 c 0.644,-3.75 1.953,-6.51 3.906,-8.28 1.953,-1.74 4.609,-2.62 7.93,-2.62 3.535,0 6.179,0.78 7.976,2.35 1.777,1.55 2.656,3.39 2.656,5.48 0,1.35 -0.347,2.5 -1.121,3.44 -0.73,0.92 -2.043,1.76 -3.926,2.45 -1.269,0.48 -4.199,1.3 -8.75,2.49 -5.878,1.52 -10,3.4 -12.363,5.62 -3.32,3.13 -4.98,6.95 -4.98,11.45 0,2.89 0.761,5.6 2.343,8.12 1.563,2.52 3.809,4.44 6.758,5.77 2.93,1.31 6.504,1.97 10.684,1.97 6.797,0 11.902,-1.56 15.351,-4.69 3.418,-3.14 5.235,-7.3 5.418,-12.54 l -10.933,-0.5 c -0.481,2.92 -1.477,5.03 -3.039,6.32 -1.524,1.26 -3.848,1.9 -6.922,1.9 -3.176,0 -5.676,-0.69 -7.453,-2.03 -1.172,-0.89 -1.758,-2.07 -1.758,-3.54 0,-1.35 0.566,-2.51 1.633,-3.47 1.375,-1.2 4.746,-2.47 10.054,-3.8 5.325,-1.32 9.258,-2.65 11.821,-4.1 2.547,-1.4 4.519,-3.33 5.965,-5.75 1.464,-2.45 2.168,-5.47 2.168,-9.07 0,-3.24 -0.84,-6.31 -2.579,-9.16 -1.738,-2.83 -4.179,-4.96 -7.312,-6.35 -3.156,-1.39 -7.082,-2.07 -11.801,-2.07 -6.851,0 -12.105,1.66 -15.789,4.99 -3.672,3.31 -5.879,8.17 -6.582,14.52" id="path52" style="fill:#231e1f;fill-opacity:1;fill-rule:nonzero;stroke:none"/><path d="m 610.912,1287.84 10.957,0 0,-30.8 c 0,-4.89 0.117,-8.04 0.371,-9.5 0.488,-2.33 1.601,-4.2 3.359,-5.61 1.758,-1.4 4.18,-2.11 7.227,-2.11 3.094,0 5.429,0.66 7.031,1.98 1.563,1.34 2.512,2.99 2.832,4.93 0.332,1.94 0.496,5.15 0.496,9.66 l 0,31.45 10.949,0 0,-29.86 c 0,-6.84 -0.312,-11.67 -0.886,-14.46 -0.598,-2.84 -1.692,-5.22 -3.274,-7.16 -1.601,-1.93 -3.73,-3.49 -6.406,-4.62 -2.648,-1.17 -6.121,-1.74 -10.41,-1.74 -5.176,0 -9.102,0.63 -11.778,1.88 -2.675,1.25 -4.785,2.89 -6.328,4.89 -1.562,2.01 -2.578,4.11 -3.086,6.3 -0.703,3.28 -1.054,8.07 -1.054,14.45 l 0,30.32" id="path54" style="fill:#231e1f;fill-opacity:1;fill-rule:nonzero;stroke:none"/><path d="m 680.978,1278.22 0,-16.14 6.008,0 c 4.297,0 7.195,0.28 8.652,0.91 1.446,0.58 2.571,1.52 3.399,2.78 0.84,1.28 1.25,2.75 1.25,4.43 0,2.07 -0.586,3.77 -1.739,5.1 -1.171,1.36 -2.617,2.2 -4.406,2.53 -1.297,0.26 -3.926,0.39 -7.871,0.39 l -5.293,0 z m -10.933,-47.24 0,56.86 17.566,0 c 6.66,0 10.977,-0.28 13.008,-0.85 3.093,-0.85 5.722,-2.72 7.812,-5.56 2.09,-2.88 3.125,-6.56 3.125,-11.08 0,-3.49 -0.605,-6.44 -1.816,-8.81 -1.192,-2.38 -2.735,-4.24 -4.59,-5.6 -1.863,-1.37 -3.75,-2.26 -5.684,-2.7 -2.597,-0.54 -6.406,-0.82 -11.347,-0.82 l -7.141,0 0,-21.44 -10.933,0" id="path56" style="fill:#231e1f;fill-opacity:1;fill-rule:nonzero;stroke:none"/><path d="m 724.947,1230.98 0,56.86 40.164,0 0,-9.62 -29.231,0 0,-12.61 27.208,0 0,-9.57 -27.208,0 0,-15.47 30.278,0 0,-9.59 -41.211,0" id="path58" style="fill:#231e1f;fill-opacity:1;fill-rule:nonzero;stroke:none"/><path d="m 790.795,1263.81 8.085,0 c 5.274,0 8.543,0.22 9.856,0.68 1.297,0.46 2.332,1.26 3.062,2.4 0.747,1.15 1.118,2.56 1.118,4.26 0,1.92 -0.5,3.48 -1.457,4.64 -0.997,1.18 -2.344,1.94 -4.141,2.26 -0.879,0.11 -3.555,0.17 -7.98,0.17 l -8.543,0 0,-14.41 z m -10.926,-32.83 0,56.86 23.015,0 c 5.801,0 10.008,-0.51 12.625,-1.53 2.629,-1.04 4.719,-2.83 6.321,-5.45 1.574,-2.62 2.363,-5.59 2.363,-8.97 0,-4.25 -1.211,-7.79 -3.605,-10.55 -2.379,-2.79 -5.946,-4.54 -10.711,-5.27 2.343,-1.45 4.316,-3.02 5.847,-4.77 1.555,-1.73 3.625,-4.8 6.242,-9.23 l 6.602,-11.09 -13.074,0 -7.91,12.38 c -2.817,4.4 -4.739,7.19 -5.774,8.36 -1.035,1.13 -2.117,1.93 -3.281,2.36 -1.172,0.42 -3.008,0.65 -5.508,0.65 l -2.226,0 0,-23.75 -10.926,0" id="path60" style="fill:#231e1f;fill-opacity:1;fill-rule:nonzero;stroke:none"/><path d="m 838.548,1230.98 10.957,0 0,56.8633 -10.957,0 0,-56.8633 z" id="path62" style="fill:#231e1f;fill-opacity:1;fill-rule:nonzero;stroke:none"/><path d="m 864.31,1230.98 0,56.86 40.195,0 0,-9.62 -29.238,0 0,-12.61 27.195,0 0,-9.57 -27.195,0 0,-15.47 30.274,0 0,-9.59 -41.231,0" id="path64" style="fill:#231e1f;fill-opacity:1;fill-rule:nonzero;stroke:none"/><path d="m 919.115,1287.84 10.957,0 0,-30.8 c 0,-4.89 0.129,-8.04 0.41,-9.5 0.469,-2.33 1.582,-4.2 3.34,-5.61 1.758,-1.4 4.172,-2.11 7.226,-2.11 3.106,0 5.45,0.66 7.024,1.98 1.57,1.34 2.527,2.99 2.859,4.93 0.313,1.94 0.469,5.15 0.469,9.66 l 0,31.45 10.945,0 0,-29.86 c 0,-6.84 -0.281,-11.67 -0.894,-14.46 -0.578,-2.84 -1.684,-5.22 -3.274,-7.16 -1.574,-1.93 -3.691,-3.49 -6.367,-4.62 -2.668,-1.17 -6.152,-1.74 -10.422,-1.74 -5.183,0 -9.109,0.63 -11.785,1.88 -2.676,1.25 -4.785,2.89 -6.328,4.89 -1.563,2.01 -2.59,4.11 -3.086,6.3 -0.703,3.28 -1.074,8.07 -1.074,14.45 l 0,30.32" id="path66" style="fill:#231e1f;fill-opacity:1;fill-rule:nonzero;stroke:none"/><path d="m 989.252,1263.81 8.086,0 c 5.253,0 8.542,0.22 9.862,0.68 1.28,0.46 2.31,1.26 3.05,2.4 0.75,1.15 1.11,2.56 1.11,4.26 0,1.92 -0.49,3.48 -1.45,4.64 -0.99,1.18 -2.36,1.94 -4.155,2.26 -0.878,0.11 -3.554,0.17 -7.968,0.17 l -8.535,0 0,-14.41 z m -10.938,-32.83 0,56.86 23.008,0 c 5.818,0 10.018,-0.51 12.638,-1.53 2.62,-1.04 4.72,-2.83 6.29,-5.45 1.59,-2.62 2.38,-5.59 2.38,-8.97 0,-4.25 -1.19,-7.79 -3.59,-10.55 -2.39,-2.79 -5.97,-4.54 -10.71,-5.27 2.35,-1.45 4.32,-3.02 5.84,-4.77 1.55,-1.73 3.62,-4.8 6.25,-9.23 l 6.61,-11.09 -13.09,0 -7.923,12.38 c -2.793,4.4 -4.715,7.19 -5.762,8.36 -1.023,1.13 -2.117,1.93 -3.289,2.36 -1.152,0.42 -2.988,0.65 -5.507,0.65 l -2.207,0 0,-23.75 -10.938,0" id="path68" style="fill:#231e1f;fill-opacity:1;fill-rule:nonzero;stroke:none"/><path d="m 1037.35,1230.98 0,56.86 40.16,0 0,-9.62 -29.23,0 0,-12.61 27.2,0 0,-9.57 -27.2,0 0,-15.47 30.28,0 0,-9.59 -41.21,0" id="path70" style="fill:#231e1f;fill-opacity:1;fill-rule:nonzero;stroke:none"/><path d="m 260.099,1196.19 0,-37.65 8.164,0 c 3.086,0 5.278,0.17 6.633,0.54 1.785,0.47 3.242,1.24 4.426,2.35 1.148,1.13 2.105,2.96 2.848,5.51 0.761,2.54 1.117,6.01 1.117,10.4 0,4.4 -0.356,7.78 -1.117,10.14 -0.743,2.34 -1.778,4.18 -3.106,5.49 -1.324,1.32 -3.023,2.21 -5.059,2.68 -1.519,0.37 -4.507,0.54 -8.984,0.54 l -4.922,0 z m -10.933,9.63 20.015,0 c 4.492,0 7.934,-0.37 10.293,-1.07 3.196,-1 5.903,-2.74 8.164,-5.26 2.278,-2.5 4.004,-5.56 5.176,-9.2 1.191,-3.63 1.789,-8.12 1.789,-13.43 0,-4.69 -0.547,-8.73 -1.672,-12.11 -1.343,-4.14 -3.277,-7.48 -5.816,-10.05 -1.875,-1.96 -4.438,-3.46 -7.68,-4.54 -2.39,-0.8 -5.64,-1.21 -9.683,-1.21 l -20.586,0 0,56.87" id="path72" style="fill:#231e1f;fill-opacity:1;fill-rule:nonzero;stroke:none"/><path d="m 308.13,1185.62 -1.972,10.57 0,9.63 11.328,0 0,-9.63 -1.711,-10.57 -7.645,0" id="path74" style="fill:#231e1f;fill-opacity:1;fill-rule:nonzero;stroke:none"/><path d="m 330.338,1148.95 10.9336,0 0,56.8672 -10.9336,0 0,-56.8672 z" id="path76" style="fill:#231e1f;fill-opacity:1;fill-rule:nonzero;stroke:none"/><path d="m 356.205,1148.95 0,56.87 10.633,0 22.191,-37.97 0,37.97 10.152,0 0,-56.87 -10.957,0 -21.875,37.09 0,-37.09 -10.144,0" id="path78" style="fill:#231e1f;fill-opacity:1;fill-rule:nonzero;stroke:none"/><path d="m 440.377,1169.86 0,9.57 23.574,0 0,-22.63 c -2.309,-2.33 -5.61,-4.39 -9.973,-6.17 -4.348,-1.76 -8.762,-2.64 -13.215,-2.64 -5.672,0 -10.601,1.24 -14.82,3.75 -4.211,2.48 -7.387,6.04 -9.484,10.7 -2.137,4.63 -3.196,9.7 -3.196,15.14 0,5.92 1.172,11.19 3.559,15.79 2.371,4.6 5.84,8.13 10.39,10.59 3.473,1.9 7.793,2.83 12.965,2.83 6.719,0 11.985,-1.48 15.766,-4.44 3.785,-2.96 6.219,-7.06 7.305,-12.29 l -10.864,-2.13 c -0.781,2.81 -2.207,5.01 -4.324,6.62 -2.098,1.62 -4.719,2.42 -7.883,2.42 -4.785,0 -8.582,-1.58 -11.394,-4.76 -2.832,-3.19 -4.246,-7.89 -4.246,-14.16 0,-6.74 1.433,-11.82 4.297,-15.2 2.847,-3.38 6.597,-5.06 11.226,-5.06 2.309,0 4.594,0.49 6.906,1.43 2.286,0.94 4.289,2.08 5.926,3.42 l 0,7.22 -12.515,0" id="path80" style="fill:#231e1f;fill-opacity:1;fill-rule:nonzero;stroke:none"/><path d="m 478.443,1148.95 0,56.87 40.176,0 0,-9.63 -29.239,0 0,-12.6 27.208,0 0,-9.57 -27.208,0 0,-15.48 30.29,0 0,-9.59 -41.227,0" id="path82" style="fill:#231e1f;fill-opacity:1;fill-rule:nonzero;stroke:none"/><path d="m 533.443,1148.95 0,56.87 10.645,0 22.175,-37.97 0,37.97 10.164,0 0,-56.87 -10.996,0 -21.836,37.09 0,-37.09 -10.152,0" id="path84" style="fill:#231e1f;fill-opacity:1;fill-rule:nonzero;stroke:none"/><path d="m 592.052,1148.95 10.9414,0 0,56.8672 -10.9414,0 0,-56.8672 z" id="path86" style="fill:#231e1f;fill-opacity:1;fill-rule:nonzero;stroke:none"/><path d="m 617.818,1148.95 0,56.87 40.164,0 0,-9.63 -29.227,0 0,-12.6 27.207,0 0,-9.57 -27.207,0 0,-15.48 30.282,0 0,-9.59 -41.219,0" id="path88" style="fill:#231e1f;fill-opacity:1;fill-rule:nonzero;stroke:none"/><path d="m 672.638,1205.82 10.942,0 0,-30.8 c 0,-4.9 0.132,-8.05 0.386,-9.49 0.493,-2.35 1.582,-4.22 3.364,-5.63 1.758,-1.38 4.175,-2.11 7.207,-2.11 3.101,0 5.457,0.67 7.031,2 1.578,1.34 2.52,2.97 2.852,4.92 0.3,1.93 0.488,5.15 0.488,9.65 l 0,31.46 10.957,0 0,-29.86 c 0,-6.84 -0.332,-11.66 -0.903,-14.48 -0.601,-2.82 -1.675,-5.21 -3.281,-7.14 -1.582,-1.93 -3.719,-3.48 -6.363,-4.63 -2.68,-1.16 -6.152,-1.72 -10.449,-1.72 -5.176,0 -9.082,0.62 -11.77,1.86 -2.668,1.26 -4.765,2.89 -6.34,4.9 -1.55,2.01 -2.578,4.11 -3.047,6.3 -0.742,3.27 -1.074,8.07 -1.074,14.44 l 0,30.33" id="path90" style="fill:#231e1f;fill-opacity:1;fill-rule:nonzero;stroke:none"/><path d="m 742.748,1181.78 8.093,0 c 5.266,0 8.539,0.23 9.844,0.68 1.313,0.47 2.324,1.27 3.051,2.41 0.762,1.15 1.133,2.56 1.133,4.25 0,1.93 -0.489,3.5 -1.489,4.65 -0.957,1.17 -2.324,1.93 -4.097,2.25 -0.903,0.11 -3.559,0.17 -7.988,0.17 l -8.547,0 0,-14.41 z m -10.926,-32.83 0,56.87 23.016,0 c 5.773,0 9.992,-0.51 12.617,-1.53 2.644,-1.03 4.726,-2.83 6.316,-5.44 1.567,-2.62 2.356,-5.6 2.356,-8.97 0,-4.26 -1.192,-7.79 -3.575,-10.56 -2.39,-2.8 -5.984,-4.53 -10.73,-5.27 2.359,-1.45 4.324,-3.03 5.867,-4.77 1.531,-1.74 3.613,-4.81 6.223,-9.23 l 6.621,-11.1 -13.086,0 -7.91,12.38 c -2.817,4.41 -4.746,7.21 -5.782,8.36 -1.039,1.15 -2.14,1.94 -3.285,2.37 -1.148,0.42 -2.984,0.64 -5.508,0.64 l -2.214,0 0,-23.75 -10.926,0" id="path92" style="fill:#231e1f;fill-opacity:1;fill-rule:nonzero;stroke:none"/><path d="m 873.57,1196.19 0,-37.65 8.168,0 c 3.035,0 5.25,0.17 6.597,0.54 1.789,0.47 3.266,1.24 4.426,2.35 1.184,1.13 2.129,2.96 2.844,5.51 0.757,2.54 1.133,6.01 1.133,10.4 0,4.4 -0.376,7.78 -1.133,10.14 -0.715,2.34 -1.758,4.18 -3.086,5.49 -1.313,1.32 -3.02,2.21 -5.063,2.68 -1.543,0.37 -4.519,0.54 -8.98,0.54 l -4.906,0 z m -10.973,9.63 20.039,0 c 4.488,0 7.945,-0.37 10.301,-1.07 3.175,-1 5.91,-2.74 8.175,-5.26 2.262,-2.5 3.985,-5.56 5.172,-9.2 1.196,-3.63 1.782,-8.12 1.782,-13.43 0,-4.69 -0.571,-8.73 -1.68,-12.11 -1.359,-4.14 -3.274,-7.48 -5.805,-10.05 -1.875,-1.96 -4.453,-3.46 -7.691,-4.54 -2.402,-0.8 -5.625,-1.21 -9.68,-1.21 l -20.613,0 0,56.87" id="path94" style="fill:#231e1f;fill-opacity:1;fill-rule:nonzero;stroke:none" inkscape:connector-curvature="0"/><path d="m 921.718,1148.95 0,56.87 40.203,0 0,-9.63 -29.266,0 0,-12.6 27.215,0 0,-9.57 -27.215,0 0,-15.48 30.274,0 0,-9.59 -41.211,0" id="path96" style="fill:#231e1f;fill-opacity:1;fill-rule:nonzero;stroke:none" inkscape:connector-curvature="0"/><path d="m 1013.015,1181.78 8.097,0 c 5.25,0 8.524,0.23 9.84,0.68 1.289,0.47 2.309,1.27 3.059,2.41 0.754,1.15 1.133,2.56 1.133,4.25 0,1.93 -0.496,3.5 -1.477,4.65 -0.972,1.17 -2.32,1.93 -4.121,2.25 -0.894,0.11 -3.555,0.17 -8.008,0.17 l -8.523,0 0,-14.41 z m -10.945,-32.83 0,56.87 23.027,0 c 5.808,0 10,-0.51 12.613,-1.53 2.641,-1.03 4.746,-2.83 6.328,-5.44 1.567,-2.62 2.383,-5.6 2.383,-8.97 0,-4.26 -1.219,-7.79 -3.609,-10.56 -2.407,-2.8 -5.95,-4.53 -10.703,-5.27 2.339,-1.45 4.312,-3.03 5.836,-4.77 1.543,-1.74 3.632,-4.81 6.25,-9.23 l 6.593,-11.1 -13.078,0 -7.93,12.38 c -2.8,4.41 -4.714,7.21 -5.742,8.36 -1.035,1.15 -2.144,1.94 -3.316,2.37 -1.137,0.42 -2.981,0.64 -5.5,0.64 l -2.207,0 0,-23.75 -10.945,0" id="path98" style="fill:#231e1f;fill-opacity:1;fill-rule:nonzero;stroke:none" inkscape:connector-curvature="0"/><path d="m 1061.11,1148.95 0,56.87 40.18,0 0,-9.63 -29.24,0 0,-12.6 27.21,0 0,-9.57 -27.21,0 0,-15.48 30.27,0 0,-9.59 -41.21,0" id="path100" style="fill:#231e1f;fill-opacity:1;fill-rule:nonzero;stroke:none" inkscape:connector-curvature="0"/><path d="m 1116.11,1148.95 0,56.87 10.63,0 22.19,-37.97 0,37.97 10.17,0 0,-56.87 -10.98,0 -21.85,37.09 0,-37.09 -10.16,0" id="path102" style="fill:#231e1f;fill-opacity:1;fill-rule:nonzero;stroke:none" inkscape:connector-curvature="0"/><path d="m 1175.15,1148.95 0,56.87 10.69,0 22.17,-37.97 0,37.97 10.16,0 0,-56.87 -10.99,0 -21.86,37.09 0,-37.09 -10.17,0" id="path104" style="fill:#231e1f;fill-opacity:1;fill-rule:nonzero;stroke:none" inkscape:connector-curvature="0"/><path d="m 1234.12,1148.95 0,56.87 40.19,0 0,-9.63 -29.25,0 0,-12.6 27.22,0 0,-9.57 -27.22,0 0,-15.48 30.27,0 0,-9.59 -41.21,0" id="path106" style="fill:#231e1f;fill-opacity:1;fill-rule:nonzero;stroke:none" inkscape:connector-curvature="0"/><path d="m 1286.25,1167.46 10.64,1.09 c 0.63,-3.76 1.94,-6.51 3.89,-8.28 1.95,-1.73 4.6,-2.63 7.94,-2.63 3.52,0 6.17,0.79 7.96,2.36 1.77,1.56 2.69,3.4 2.69,5.49 0,1.33 -0.39,2.49 -1.13,3.42 -0.76,0.93 -2.07,1.76 -3.94,2.46 -1.27,0.49 -4.21,1.31 -8.78,2.5 -5.85,1.52 -9.98,3.38 -12.34,5.62 -3.31,3.12 -4.98,6.94 -4.98,11.45 0,2.89 0.76,5.59 2.32,8.11 1.59,2.52 3.84,4.45 6.78,5.75 2.94,1.33 6.51,1.99 10.67,1.99 6.79,0 11.93,-1.56 15.39,-4.7 3.41,-3.13 5.23,-7.3 5.4,-12.53 l -10.97,-0.5 c -0.45,2.92 -1.46,5.02 -3,6.33 -1.53,1.25 -3.84,1.9 -6.93,1.9 -3.18,0 -5.68,-0.7 -7.47,-2.05 -1.14,-0.88 -1.73,-2.07 -1.73,-3.53 0,-1.35 0.52,-2.51 1.63,-3.47 1.37,-1.21 4.74,-2.46 10.06,-3.81 5.31,-1.31 9.26,-2.65 11.81,-4.08 2.54,-1.42 4.55,-3.34 5.98,-5.76 1.43,-2.45 2.17,-5.47 2.17,-9.06 0,-3.26 -0.86,-6.33 -2.6,-9.16 -1.72,-2.85 -4.16,-4.98 -7.32,-6.36 -3.15,-1.39 -7.09,-2.06 -11.78,-2.06 -6.87,0 -12.13,1.66 -15.78,4.98 -3.67,3.31 -5.86,8.17 -6.58,14.53" id="path108" style="fill:#231e1f;fill-opacity:1;fill-rule:nonzero;stroke:none" inkscape:connector-curvature="0"/></g></g><path inkscape:connector-curvature="0" d="m 785.3368,1167.4166 10.64,1.09 c 0.63,-3.76 1.94,-6.51 3.89,-8.28 1.95,-1.73 4.6,-2.63 7.94,-2.63 3.52,0 6.17,0.79 7.96,2.36 1.77,1.56 2.69,3.4 2.69,5.49 0,1.33 -0.39,2.49 -1.13,3.42 -0.76,0.93 -2.07,1.76 -3.94,2.46 -1.27,0.49 -4.21,1.31 -8.78,2.5 -5.85,1.52 -9.98,3.38 -12.34,5.62 -3.31,3.12 -4.98,6.94 -4.98,11.45 0,2.89 0.76,5.59 2.32,8.11 1.59,2.52 3.84,4.45 6.78,5.75 2.94,1.33 6.51,1.99 10.67,1.99 6.79,0 11.93,-1.56 15.39,-4.7 3.41,-3.13 5.23,-7.3 5.4,-12.53 l -10.97,-0.5 c -0.45,2.92 -1.46,5.02 -3,6.33 -1.53,1.25 -3.84,1.9 -6.93,1.9 -3.18,0 -5.68,-0.7 -7.47,-2.05 -1.14,-0.88 -1.73,-2.07 -1.73,-3.53 0,-1.35 0.52,-2.51 1.63,-3.47 1.37,-1.21 4.74,-2.46 10.06,-3.81 5.31,-1.31 9.26,-2.65 11.81,-4.08 2.54,-1.42 4.55,-3.34 5.98,-5.76 1.43,-2.45 2.17,-5.47 2.17,-9.06 0,-3.26 -0.86,-6.33 -2.6,-9.16 -1.72,-2.85 -4.16,-4.98 -7.32,-6.36 -3.15,-1.39 -7.09,-2.06 -11.78,-2.06 -6.87,0 -12.13,1.66 -15.78,4.98 -3.67,3.31 -5.86,8.17 -6.58,14.53" id="path108-8" style="fill:#231e1f;fill-opacity:1;fill-rule:nonzero;stroke:none"/></g></g></svg>