<?xml version="1.0" encoding="UTF-8" standalone="no"?>
<svg
   xmlns:dc="http://purl.org/dc/elements/1.1/"
   xmlns:cc="http://creativecommons.org/ns#"
   xmlns:rdf="http://www.w3.org/1999/02/22-rdf-syntax-ns#"
   xmlns:svg="http://www.w3.org/2000/svg"
   xmlns="http://www.w3.org/2000/svg"
   xmlns:sodipodi="http://sodipodi.sourceforge.net/DTD/sodipodi-0.dtd"
   xmlns:inkscape="http://www.inkscape.org/namespaces/inkscape"
   enable-background="new 0 0 100 100"
   height="100px"
   id="Layer_1"
   version="1.1"
   viewBox="0 0 100 100"
   width="100px"
   xml:space="preserve"
   inkscape:version="0.48.4 r9939"
   sodipodi:docname="1441108095_Noun_Project_100Icon_10px_grid-07.svg"><metadata
     id="metadata5577"><rdf:RDF><cc:Work
         rdf:about=""><dc:format>image/svg+xml</dc:format><dc:type
           rdf:resource="http://purl.org/dc/dcmitype/StillImage" /><dc:title></dc:title></cc:Work></rdf:RDF></metadata><defs
     id="defs5575" /><sodipodi:namedview
     pagecolor="#ffffff"
     bordercolor="#666666"
     borderopacity="1"
     objecttolerance="10"
     gridtolerance="10"
     guidetolerance="10"
     inkscape:pageopacity="0"
     inkscape:pageshadow="2"
     inkscape:window-width="1914"
     inkscape:window-height="1175"
     id="namedview5573"
     showgrid="false"
     inkscape:snap-global="false"
     showguides="false"
     inkscape:zoom="4.72"
     inkscape:cx="38.280902"
     inkscape:cy="46.690642"
     inkscape:window-x="0"
     inkscape:window-y="19"
     inkscape:window-maximized="1"
     inkscape:current-layer="g5559" /><g
     id="g5559"><path
       d="M 26.502491,18.951271 31.673728,19.057204 25,18.875 l -8,0 0,74.25 58,0 0,-12 -0.580508,-48.940678 -15.783899,-12.70339 z m 13.785458,0.496492 5.828204,0.399695 -5.480475,0 z M 73,79.125 l 0,1 0,1 0,10 -54,0 0,-70.25 6,0 1,0 1,0 29.776,0 L 56.68,33 73,33 z M 58.695,31 58.77,21.702 71.167,31 z M 73.584746,32.197034 75,79.125 l 0,-47.75 -16.667,-12.5 -31.333,0 0.105932,-0.148305 -0.147729,0.529661 1.81078,0.790254 29.455593,0.211865 z"
       id="path5561"
       inkscape:connector-curvature="0"
       sodipodi:nodetypes="ccccccccccccccccccccccccccccccccccccccccc" /><polygon
       points="27,39.844 45.875,39.844 45.875,37.844 27,37.844 26,37.844 25.875,37.844 25.875,39.844 26,39.844  "
       id="polygon5563" /><polygon
       points="26,45.844 25.875,45.844 25.875,47.844 26,47.844 27,47.844 65.875,47.844 65.875,45.844 27,45.844  "
       id="polygon5565" /><polygon
       points="26,53.844 25.875,53.844 25.875,55.844 26,55.844 27,55.844 65.875,55.844 65.875,53.844 27,53.844  "
       id="polygon5567" /><polygon
       points="26,61.844 25.875,61.844 25.875,63.844 26,63.844 27,63.844 65.875,63.844 65.875,61.844 27,61.844  "
       id="polygon5569" /><polygon
       points="26,69.844 25.875,69.844 25.875,71.844 26,71.844 27,71.844 65.875,71.844 65.875,69.844 27,69.844  "
       id="polygon5571" /></g></svg>